<svg xmlns="http://www.w3.org/2000/svg" xmlns:xlink="http://www.w3.org/1999/xlink"><symbol id="arrow"><path d="M.01 3.297h18.387c-.886-1.3-1.327-2.147-1.372-3.303 2.015 1.992 4.634 3.029 7.8 4.005-3.166.934-5.67 2.074-7.8 4.005.135-1.255.503-2.014 1.399-3.395H.01z" fill="#1c1c2a" fill-rule="evenodd"/></symbol><symbol id="burger"><filter id="a"><feFlood flood-color="#e0c68b" result="floodOut"/><feComposite in="floodOut" in2="SourceGraphic" operator="atop" result="compOut"/><feBlend in="compOut" in2="SourceGraphic"/></filter><g filter="url(#a)"><path d="M.461-.009h1.661c.26 0 .582-.033.746.068.473.29.365 2.24.203 2.856-.087.058-.169.165-.271.204-.424.159-2.18.026-2.543-.068-.066-.102-.199-.222-.237-.34V.433C.107.206.32.154.461-.009zm8.375 0h2.306c.056.071.093.048.169.102.102.073.15.217.237.306.016.821.24 2.647-.474 2.72-.124.078-.458.034-.644.034-.552 0-1.163.005-1.662-.034a4.239 4.239 0 0 0-.339-.374V.399c.067-.202.284-.263.407-.408zm8.375 0h2.306c.14.163.356.215.441.442v2.278c-.078.065-.074.155-.136.238l-.237.17c-.763.058-1.888.103-2.543-.068-.077-.115-.197-.225-.238-.374V.467c.071-.252.27-.303.407-.476zM.427 8.422c.819-.015 2.64-.24 2.712.476.079.124.034.459.034.646 0 .553.006 1.165-.034 1.665a4.562 4.562 0 0 0-.373.34c-.723.009-2.426.158-2.678-.272-.1-.169-.068-.484-.068-.747v-1.7c.065-.055.018-.059.068-.136.074-.117.241-.176.339-.272zm8.375 0c.826-.007 1.882-.075 2.543.102.286.444.203 1.177.203 1.904 0 .201.052.578-.033.714-.159.597-1.237.407-1.967.407-.334 0-.717.036-.916-.102-.331-.231-.215-2.023-.203-2.651.071-.056.048-.095.102-.17.064-.09.201-.116.271-.204zm8.409 0h1.729c.255 0 .589-.037.746.068.429.286.28 1.905.272 2.652-.071.056-.048.093-.102.169-.072.102-.216.151-.305.238-.819.015-2.641.241-2.713-.475-.078-.125-.034-.46-.034-.646 0-.553-.005-1.166.034-1.666.119-.091.263-.232.373-.34zM.494 16.818c.799-.006 1.805-.064 2.442.103.333.499.237 1.093.237 1.903 0 .258.043.626-.068.782-.181.57-1.864.385-2.644.374-.141-.163-.356-.214-.441-.442v-2.312c.1-.077.135-.235.237-.305.074-.052.172-.049.237-.103zm8.41 0c.762-.002 1.598-.016 2.305.034.091.12.232.264.339.374v1.734c0 .256.037.591-.067.748-.285.43-1.901.281-2.645.272-.056-.071-.094-.048-.17-.102-.102-.073-.15-.217-.237-.306v-2.346c.076-.229.296-.277.475-.408zm8.375 0c.801-.006 1.801-.063 2.441.103.065.101.196.228.238.339v2.278c-.16.138-.22.359-.441.442h-2.272c-.113-.128-.273-.122-.339-.306-.13-.144-.102-.438-.102-.714 0-.597-.009-1.258.034-1.802.082-.061.121-.182.204-.237.074-.052.171-.049.237-.103z" fill="#737373" fill-rule="evenodd"/></g></symbol><symbol id="phone"><filter id="a"><feFlood flood-color="#b59d8d" result="floodOut"/><feComposite in="floodOut" in2="SourceGraphic" operator="atop" result="compOut"/><feBlend in="compOut" in2="SourceGraphic"/></filter><g filter="url(#a)"><path d="M12.995 10.675c-.369 1.202-1.748 2.075-3.278 2.074a4.16 4.16 0 0 1-.448-.025c-1.86-.245-4.037-1.415-5.828-3.133C1.556 7.939.279 5.944.027 4.253-.229 2.541.607 1.265 2.262.838A1.07 1.07 0 0 1 2.53.805c.969 0 2.124 1.255 2.525 2.156.261.586.241 1.038-.057 1.306-.75.673-1.029 1.083-.997 1.46.037.421.464.907 1.189 1.604.093.089.216.208.356.336.13.118.254.228.364.324.81.709 1.339 1.093 1.815 1.093.395 0 .823-.257 1.528-.916.106-.1.303-.219.635-.219.874 0 2.108.782 2.712 1.513.366.442.502.861.395 1.213z" fill="#b59d8d" fill-rule="evenodd"/></g></symbol><symbol id="shevron"><filter id="a"><feFlood flood-color="#1c1c2a" result="floodOut"/><feComposite in="floodOut" in2="SourceGraphic" operator="atop" result="compOut"/><feBlend in="compOut" in2="SourceGraphic"/></filter><g filter="url(#a)"><path d="M10.005 1.072c-.061.086-.16.145-.232.22-.239.248-.498.478-.736.724-.227.235-.456.464-.682.699-.129.134-.278.242-.395.388l-.191.169c-.185.175-.387.357-.545.556l-.164.142-.341.349c-.077.069-.154.139-.232.207-.292.367-.721.719-1.063 1.048-.107.103-.309.37-.436.427-.086-.123-.219-.219-.327-.323l-.246-.259-.163-.142c-.158-.199-.361-.381-.546-.556l-.191-.169c-.117-.146-.266-.254-.395-.388-.226-.235-.455-.464-.681-.699-.121-.125-.288-.227-.396-.362-.326-.409-.768-.736-1.131-1.112-.214-.222-.436-.432-.655-.647-.086-.085-.154-.193-.259-.259C.063.967.31.79.421.697V.671C.592.527.764.384.925.231c.084-.079.156-.173.259-.233.14.201.382.329.532.518.154.193.351.372.532.543l.191.168c.113.142.259.245.381.375.232.248.477.478.709.725.111.118.268.211.368.337.155.193.351.372.532.543l.191.168c.066.084.294.349.395.375.05-.071.129-.121.191-.181.14-.136.29-.273.422-.414.241-.256.496-.494.737-.75.127-.136.278-.242.395-.389.108-.135.276-.235.395-.362.232-.247.474-.48.709-.724.125-.13.298-.236.409-.376.113-.142.259-.244.382-.375.059-.063.101-.133.177-.181l1.173 1.074z" fill="#737373" fill-rule="evenodd"/></g></symbol><symbol id="social-fb"><path d="M72.089.02L59.624 0C45.62 0 36.57 9.285 36.57 23.656v10.907H24.037a1.96 1.96 0 0 0-1.96 1.961v15.803a1.96 1.96 0 0 0 1.96 1.96H36.57v39.876a1.96 1.96 0 0 0 1.96 1.96h16.352a1.96 1.96 0 0 0 1.96-1.96V54.287h14.654a1.96 1.96 0 0 0 1.96-1.96l.006-15.803a1.963 1.963 0 0 0-1.961-1.961H56.842v-9.246c0-4.444 1.059-6.7 6.848-6.7l8.397-.003a1.96 1.96 0 0 0 1.959-1.96V1.98A1.96 1.96 0 0 0 72.089.02z" fill="#b59d8d"/></symbol><symbol id="social-inst" viewBox="0 0 512 512"><g fill="#b59d8d"><path d="M352 0H160C71.648 0 0 71.648 0 160v192c0 88.352 71.648 160 160 160h192c88.352 0 160-71.648 160-160V160C512 71.648 440.352 0 352 0zm112 352c0 61.76-50.24 112-112 112H160c-61.76 0-112-50.24-112-112V160C48 98.24 98.24 48 160 48h192c61.76 0 112 50.24 112 112z"/><path d="M256 128c-70.688 0-128 57.312-128 128s57.312 128 128 128 128-57.312 128-128-57.312-128-128-128zm0 208c-44.096 0-80-35.904-80-80 0-44.128 35.904-80 80-80s80 35.872 80 80c0 44.096-35.904 80-80 80z"/><circle cx="393.6" cy="118.4" r="17.056"/></g></symbol><symbol id="social-vk"><path d="M545.451 400.298c-.664-1.431-1.283-2.618-1.858-3.569-9.514-17.135-27.695-38.167-54.532-63.102l-.567-.571-.284-.28-.287-.287h-.288c-12.18-11.611-19.893-19.418-23.123-23.415-5.91-7.614-7.234-15.321-4.004-23.13 2.282-5.9 10.854-18.36 25.696-37.397 7.807-10.089 13.99-18.175 18.556-24.267 32.931-43.78 47.208-71.756 42.828-83.939l-1.701-2.847c-1.143-1.714-4.093-3.282-8.846-4.712-4.764-1.427-10.853-1.663-18.278-.712l-82.224.568c-1.332-.472-3.234-.428-5.712.144l-3.713.859-1.431.715-1.136.859c-.952.568-1.999 1.567-3.142 2.995-1.137 1.423-2.088 3.093-2.848 4.996-8.952 23.031-19.13 44.444-30.553 64.238-7.043 11.803-13.511 22.032-19.418 30.693-5.899 8.658-10.848 15.037-14.842 19.126-4 4.093-7.61 7.372-10.852 9.849-3.237 2.478-5.708 3.525-7.419 3.142-1.715-.383-3.33-.763-4.859-1.143-2.663-1.714-4.805-4.045-6.42-6.995-1.622-2.95-2.714-6.663-3.285-11.136-.568-4.476-.904-8.326-1-11.563-.089-3.233-.048-7.806.145-13.706.198-5.903.287-9.897.287-11.991 0-7.234.141-15.085.424-23.555.288-8.47.521-15.181.716-20.125.194-4.949.284-10.185.284-15.705s-.336-9.849-1-12.991a44.442 44.442 0 0 0-2.99-9.137c-1.335-2.95-3.289-5.232-5.853-6.852-2.569-1.618-5.763-2.902-9.564-3.856-10.089-2.283-22.936-3.518-38.547-3.71-35.401-.38-58.148 1.906-68.236 6.855-3.997 2.091-7.614 4.948-10.848 8.562-3.427 4.189-3.905 6.475-1.431 6.851 11.422 1.711 19.508 5.804 24.267 12.275l1.715 3.429c1.334 2.474 2.666 6.854 3.999 13.134 1.331 6.28 2.19 13.227 2.568 20.837.95 13.897.95 25.793 0 35.689-.953 9.9-1.853 17.607-2.712 23.127s-2.143 9.993-3.855 13.418c-1.715 3.426-2.856 5.52-3.428 6.28-.571.76-1.047 1.239-1.425 1.427a21.387 21.387 0 0 1-7.71 1.431c-2.667 0-5.901-1.334-9.707-4-3.805-2.666-7.754-6.328-11.847-10.992-4.093-4.665-8.709-11.184-13.85-19.558-5.137-8.374-10.467-18.271-15.987-29.691l-4.567-8.282c-2.855-5.328-6.755-13.086-11.704-23.267-4.952-10.185-9.329-20.037-13.134-29.554-1.521-3.997-3.806-7.04-6.851-9.134l-1.429-.859c-.95-.76-2.475-1.567-4.567-2.427a30.301 30.301 0 0 0-6.567-1.854l-78.229.568c-7.994 0-13.418 1.811-16.274 5.428l-1.143 1.711c-.571.953-.859 2.475-.859 4.57 0 2.094.571 4.664 1.714 7.707 11.42 26.84 23.839 52.725 37.257 77.659s25.078 45.019 34.973 60.237c9.897 15.229 19.985 29.602 30.264 43.112 10.279 13.515 17.083 22.176 20.412 25.981 3.333 3.812 5.951 6.662 7.854 8.565l7.139 6.851c4.568 4.569 11.276 10.041 20.127 16.416 8.853 6.379 18.654 12.659 29.408 18.85 10.756 6.181 23.269 11.225 37.546 15.126 14.275 3.905 28.169 5.472 41.684 4.716h32.834c6.659-.575 11.704-2.669 15.133-6.283l1.136-1.431c.764-1.136 1.479-2.901 2.139-5.276.668-2.379 1-5 1-7.851-.195-8.183.428-15.558 1.852-22.124 1.423-6.564 3.045-11.513 4.859-14.846 1.813-3.33 3.859-6.14 6.136-8.418 2.282-2.283 3.908-3.666 4.862-4.142.948-.479 1.705-.804 2.276-.999 4.568-1.522 9.944-.048 16.136 4.429 6.187 4.473 11.99 9.996 17.418 16.56 5.425 6.57 11.943 13.941 19.555 22.124 7.617 8.186 14.277 14.271 19.985 18.274l5.708 3.426c3.812 2.286 8.761 4.38 14.853 6.283 6.081 1.902 11.409 2.378 15.984 1.427l73.087-1.14c7.229 0 12.854-1.197 16.844-3.572 3.998-2.379 6.373-5 7.139-7.851.764-2.854.805-6.092.145-9.712-.677-3.611-1.344-6.136-2.008-7.563z" fill="#b59d8d"/></symbol><symbol id="star" viewBox="0 0 19.481 19.481"><path d="M10.201.758l2.478 5.865 6.344.545a.5.5 0 0 1 .285.876l-4.812 4.169 1.442 6.202a.5.5 0 0 1-.745.541l-5.452-3.288-5.452 3.288a.5.5 0 0 1-.745-.541l1.442-6.202-4.813-4.17a.5.5 0 0 1 .285-.876l6.344-.545L9.28.758a.5.5 0 0 1 .921 0z"/></symbol></svg>