<svg height="20" width="20" xmlns="http://www.w3.org/2000/svg" xmlns:xlink="http://www.w3.org/1999/xlink"><filter id="a"><feFlood flood-color="#e0c68b" result="floodOut"/><feComposite in="floodOut" in2="SourceGraphic" operator="atop" result="compOut"/><feBlend in="compOut" in2="SourceGraphic" mode="normal"/></filter><g filter="url(#a)"><path d="m.461-.009h1.661c.26 0 .582-.033.746.068.473.29.365 2.24.203 2.856-.087.058-.169.165-.271.204-.424.159-2.18.026-2.543-.068-.066-.102-.199-.222-.237-.34 0-.522 0-1.043 0-1.564 0-.238 0-.476 0-.714.087-.227.3-.279.441-.442zm8.375 0h2.306c.056.071.093.048.169.102.102.073.15.217.237.306.016.821.24 2.647-.474 2.72-.124.078-.458.034-.644.034-.552 0-1.163.005-1.662-.034-.09-.12-.231-.264-.339-.374 0-.782 0-1.564 0-2.346.067-.202.284-.263.407-.408zm8.375 0h2.306c.14.163.356.215.441.442v2.278c-.078.065-.074.155-.136.238-.079.056-.158.113-.237.17-.763.058-1.888.103-2.543-.068-.077-.115-.197-.225-.238-.374 0-.737 0-1.473 0-2.21.071-.252.27-.303.407-.476zm-16.784 8.431c.819-.015 2.64-.24 2.712.476.079.124.034.459.034.646 0 .553.006 1.165-.034 1.665-.119.091-.263.232-.373.34-.723.009-2.426.158-2.678-.272-.1-.169-.068-.484-.068-.747 0-.567 0-1.134 0-1.7.065-.055.018-.059.068-.136.074-.117.241-.176.339-.272zm8.375 0c.826-.007 1.882-.075 2.543.102.286.444.203 1.177.203 1.904 0 .201.052.578-.033.714-.159.597-1.237.407-1.967.407-.334 0-.717.036-.916-.102-.331-.231-.215-2.023-.203-2.651.071-.056.048-.095.102-.17.064-.09.201-.116.271-.204zm8.409 0h1.729c.255 0 .589-.037.746.068.429.286.28 1.905.272 2.652-.071.056-.048.093-.102.169-.072.102-.216.151-.305.238-.819.015-2.641.241-2.713-.475-.078-.125-.034-.46-.034-.646 0-.553-.005-1.166.034-1.666.119-.091.263-.232.373-.34zm-16.717 8.396c.799-.006 1.805-.064 2.442.103.333.499.237 1.093.237 1.903 0 .258.043.626-.068.782-.181.57-1.864.385-2.644.374-.141-.163-.356-.214-.441-.442 0-.77 0-1.541 0-2.312.1-.077.135-.235.237-.305.074-.052.172-.049.237-.103zm8.41 0c.762-.002 1.598-.016 2.305.034.091.12.232.264.339.374v1.734c0 .256.037.591-.067.748-.285.43-1.901.281-2.645.272-.056-.071-.094-.048-.17-.102-.102-.073-.15-.217-.237-.306 0-.782 0-1.563 0-2.346.076-.229.296-.277.475-.408zm8.375 0c.801-.006 1.801-.063 2.441.103.065.101.196.228.238.339v2.278c-.16.138-.22.359-.441.442-.757 0-1.515 0-2.272 0-.113-.128-.273-.122-.339-.306-.13-.144-.102-.438-.102-.714 0-.597-.009-1.258.034-1.802.082-.061.121-.182.204-.237.074-.052.171-.049.237-.103z" fill="#737373" fill-rule="evenodd"/></g></svg>