<svg enable-background="new 0 0 410.23 410.23" height="410.23" viewBox="0 0 410.23 410.23" width="410.23" xmlns="http://www.w3.org/2000/svg"><path d="m401.625 364.092-107.1-107.1c19.125-26.775 30.6-59.288 30.6-93.713 0-89.888-72.675-162.562-162.562-162.562s-162.563 72.675-162.563 162.562 72.675 162.562 162.562 162.562c34.425 0 66.938-11.475 93.713-30.6l107.1 107.1c9.562 9.562 26.775 9.562 38.25 0 11.475-11.474 11.475-26.775 0-38.249zm-239.063-76.5c-68.85 0-124.312-55.463-124.312-124.312 0-68.85 55.462-124.312 124.312-124.312s124.312 55.462 124.312 124.312c.001 68.849-55.462 124.312-124.312 124.312z"/></svg>