<svg height="6" width="10" xmlns="http://www.w3.org/2000/svg" xmlns:xlink="http://www.w3.org/1999/xlink"><filter id="a"><feFlood flood-color="#1c1c2a" result="floodOut"/><feComposite in="floodOut" in2="SourceGraphic" operator="atop" result="compOut"/><feBlend in="compOut" in2="SourceGraphic" mode="normal"/></filter><g filter="url(#a)"><path d="m10.005 1.072c-.061.086-.16.145-.232.22-.239.248-.498.478-.736.724-.227.235-.456.464-.682.699-.129.134-.278.242-.395.388-.064.056-.128.112-.191.169-.185.175-.387.357-.545.556-.055.047-.11.095-.164.142-.114.116-.227.233-.341.349-.077.069-.154.139-.232.207-.292.367-.721.719-1.063 1.048-.107.103-.309.37-.436.427-.086-.123-.219-.219-.327-.323-.082-.086-.164-.173-.246-.259-.054-.047-.109-.095-.163-.142-.158-.199-.361-.381-.546-.556-.063-.057-.127-.113-.191-.169-.117-.146-.266-.254-.395-.388-.226-.235-.455-.464-.681-.699-.121-.125-.288-.227-.396-.362-.326-.409-.768-.736-1.131-1.112-.214-.222-.436-.432-.655-.647-.086-.085-.154-.193-.259-.259.065-.118.312-.295.423-.388 0-.009 0-.018 0-.026.171-.144.343-.287.504-.44.084-.079.156-.173.259-.233.14.201.382.329.532.518.154.193.351.372.532.543.063.056.127.112.191.168.113.142.259.245.381.375.232.248.477.478.709.725.111.118.268.211.368.337.155.193.351.372.532.543.063.056.127.112.191.168.066.084.294.349.395.375.05-.071.129-.121.191-.181.14-.136.29-.273.422-.414.241-.256.496-.494.737-.75.127-.136.278-.242.395-.389.108-.135.276-.235.395-.362.232-.247.474-.48.709-.724.125-.13.298-.236.409-.376.113-.142.259-.244.382-.375.059-.063.101-.133.177-.181.391.358.782.716 1.173 1.074z" fill="#737373" fill-rule="evenodd"/></g></svg>